<svg width="15" height="14" viewBox="0 0 15 14" fill="none" xmlns="http://www.w3.org/2000/svg">
<path d="M7.50035 12.4998H13.1254M9.37535 3.12483L11.2504 4.99983M10.2354 2.26358C10.4842 2.01478 10.8216 1.875 11.1735 1.875C11.5253 1.875 11.8628 2.01478 12.1116 2.26358C12.3604 2.51239 12.5002 2.84984 12.5002 3.20171C12.5002 3.55357 12.3604 3.89103 12.1116 4.13983L4.60535 11.6467C4.45666 11.7954 4.27287 11.9042 4.07098 11.963L2.27598 12.4867C2.2222 12.5024 2.16519 12.5033 2.11092 12.4894C2.05665 12.4755 2.00712 12.4473 1.96751 12.4077C1.92789 12.3681 1.89966 12.3185 1.88575 12.2643C1.87185 12.21 1.87279 12.153 1.88848 12.0992L2.41223 10.3042C2.47111 10.1025 2.57988 9.91897 2.72848 9.77046L10.2354 2.26358Z" stroke="#E35D1C" stroke-width="2" stroke-linecap="round" stroke-linejoin="round"/>
</svg>
