<svg width="50" height="50" viewBox="0 0 50 50" fill="none" xmlns="http://www.w3.org/2000/svg">
<rect width="50" height="50" rx="10" fill="#E35D1C"/>
<path d="M40.5836 20.5306L40.1636 20.1106C40.4353 19.546 40.5285 18.912 40.4307 18.2931C40.3329 17.6742 40.0488 17.0998 39.6163 16.6465C39.3216 16.3523 38.9673 16.1245 38.5772 15.9786C38.1871 15.8327 37.7703 15.7721 37.3549 15.8007C36.9644 15.8227 36.5809 15.9139 36.2222 16.07V9H9V40.1111H36.2222V24.3806L39.2264 21.3764L39.4831 21.6321C39.5167 21.6655 39.5434 21.7053 39.5617 21.7491C39.5799 21.7929 39.5893 21.8399 39.5893 21.8873C39.5893 21.9347 39.5799 21.9817 39.5617 22.0255C39.5434 22.0693 39.5167 22.1091 39.4831 22.1425L37.1954 24.4311C37.0495 24.5769 36.9674 24.7747 36.9673 24.981C36.9673 25.1873 37.0491 25.3852 37.1949 25.5312C37.3407 25.6771 37.5386 25.7592 37.7449 25.7593C37.9512 25.7593 38.1491 25.6775 38.295 25.5317L40.5836 23.2431C40.9428 22.8831 41.1445 22.3953 41.1445 21.8868C41.1445 21.3783 40.9428 20.8905 40.5836 20.5306ZM14.8333 15.0278H30.3908V16.5833H14.8333V15.0278ZM14.8333 18.9167H30.3908V20.4722H14.8333V18.9167ZM14.8333 22.8056H25.0417V24.3611H14.8333V22.8056ZM29.2144 36.1211H21.6272C20.7503 36.1211 19.9297 36.0385 19.4942 35.32C19.0479 34.586 19.4912 33.7333 19.815 33.1092C19.8724 32.9993 19.745 32.8632 19.5992 33.0139C19.1714 33.4533 18.4908 34.2447 17.9435 34.8806C17.365 35.5533 17.1356 35.8168 17.0131 35.9276C16.8835 36.0782 16.7074 36.1813 16.5127 36.2207C16.318 36.2602 16.1157 36.2337 15.9378 36.1454C15.7781 36.053 15.653 35.911 15.5816 35.7409C15.5102 35.5708 15.4963 35.382 15.5421 35.2033C15.5829 34.9603 16.2771 32.2556 16.9061 29.824C16.07 31.3086 13.4158 35.7546 13.2914 35.9636C13.1988 36.1187 13.0484 36.2307 12.8733 36.2749C12.6982 36.3191 12.5127 36.2919 12.3576 36.1994C12.2025 36.1068 12.0905 35.9564 12.0463 35.7813C12.0021 35.6062 12.0292 35.4207 12.1218 35.2656C12.1558 35.2101 15.4808 29.6383 15.8999 28.8294C16.0365 28.5061 16.2907 28.2467 16.6112 28.1036C16.9317 27.9605 17.2946 27.9443 17.6265 28.0585C17.9261 28.1803 18.1685 28.4111 18.3047 28.7044C18.4409 28.9978 18.4609 29.3318 18.3606 29.6393C18.0106 30.9888 17.6537 32.3732 17.3786 33.4504C17.8229 32.9371 18.2876 32.4101 18.6231 32.065C18.8813 31.7548 19.234 31.5377 19.6273 31.4469C20.0206 31.3562 20.4328 31.3967 20.8008 31.5624C21.0299 31.6784 21.2134 31.8679 21.3219 32.1006C21.4305 32.3333 21.4579 32.5956 21.3997 32.8457C21.3065 33.1553 21.1801 33.4539 21.0225 33.7362C20.7629 34.2758 20.8864 34.759 21.6272 34.759H29.2135C29.394 34.759 29.5671 34.8307 29.6947 34.9584C29.8223 35.086 29.894 35.2591 29.894 35.4396C29.894 35.6201 29.8223 35.7932 29.6947 35.9208C29.5671 36.0484 29.394 36.1201 29.2135 36.1201L29.2144 36.1211ZM27.1912 31.2114L24.6596 31.8793C24.6227 31.8895 24.5838 31.8897 24.5469 31.8798C24.5099 31.8699 24.4763 31.8502 24.4496 31.8229C24.4221 31.7963 24.4023 31.7627 24.3922 31.7258C24.3821 31.6888 24.3821 31.6499 24.3922 31.6129L25.0378 29.0861L31.4447 22.6792L33.5836 24.8181L27.1912 31.2114ZM38.3387 20.0629L34.6832 23.7185L32.5443 21.5796L36.1999 17.924C36.5268 17.588 36.9667 17.385 37.4346 17.3543L37.5221 17.3514C37.7057 17.3479 37.8881 17.3812 38.0588 17.4491C38.2294 17.5171 38.3847 17.6184 38.5157 17.7471C38.7967 18.0788 38.9357 18.5079 38.9026 18.9413C38.8695 19.3748 38.6669 19.7778 38.3387 20.0629Z" fill="white"/>
</svg>
