<svg width="50" height="50" viewBox="0 0 50 50" fill="none" xmlns="http://www.w3.org/2000/svg">
<rect width="50" height="50" rx="10" fill="#E35D1C"/>
<path d="M38.3542 12.8331H34.4653V15.7498C34.4653 16.0307 34.41 16.3088 34.3025 16.5683C34.195 16.8278 34.0374 17.0636 33.8388 17.2622C33.6402 17.4608 33.4044 17.6184 33.1449 17.7259C32.8854 17.8334 32.6073 17.8887 32.3264 17.8887C32.0455 17.8887 31.7674 17.8334 31.5079 17.7259C31.2484 17.6184 31.0126 17.4608 30.814 17.2622C30.6154 17.0636 30.4578 16.8278 30.3503 16.5683C30.2428 16.3088 30.1875 16.0307 30.1875 15.7498V12.8331H18.8611V15.7498C18.8611 16.3171 18.6358 16.8611 18.2347 17.2622C17.8335 17.6633 17.2895 17.8887 16.7222 17.8887C16.155 17.8887 15.6109 17.6633 15.2098 17.2622C14.8087 16.8611 14.5834 16.3171 14.5834 15.7498V12.8331H10.6945C10.4631 12.8305 10.2336 12.8743 10.0194 12.9619C9.80526 13.0495 9.61086 13.1792 9.4477 13.3433C9.28454 13.5073 9.15594 13.7025 9.0695 13.9171C8.98307 14.1317 8.94055 14.3615 8.94446 14.5928V36.3512C8.9406 36.5784 8.98155 36.8042 9.06497 37.0157C9.14838 37.2271 9.27264 37.4201 9.43063 37.5835C9.58863 37.7469 9.77727 37.8776 9.98578 37.9681C10.1943 38.0586 10.4186 38.1071 10.6459 38.1109H38.3542C38.5815 38.1071 38.8058 38.0586 39.0143 37.9681C39.2228 37.8776 39.4114 37.7469 39.5694 37.5835C39.7274 37.4201 39.8517 37.2271 39.9351 37.0157C40.0185 36.8042 40.0594 36.5784 40.0556 36.3512V14.5928C40.0594 14.3656 40.0185 14.1398 39.9351 13.9283C39.8517 13.7169 39.7274 13.524 39.5694 13.3605C39.4114 13.1971 39.2228 13.0664 39.0143 12.9759C38.8058 12.8855 38.5815 12.8369 38.3542 12.8331ZM16.7222 32.2776H14.7778V30.3331H16.7222V32.2776ZM16.7222 27.4165H14.7778V25.472H16.7222V27.4165ZM16.7222 22.5553H14.7778V20.6109H16.7222V22.5553ZM22.5556 32.2776H20.6111V30.3331H22.5556V32.2776ZM22.5556 27.4165H20.6111V25.472H22.5556V27.4165ZM22.5556 22.5553H20.6111V20.6109H22.5556V22.5553ZM28.3889 32.2776H26.4445V30.3331H28.3889V32.2776ZM28.3889 27.4165H26.4445V25.472H28.3889V27.4165ZM28.3889 22.5553H26.4445V20.6109H28.3889V22.5553ZM34.2222 32.2776H32.2778V30.3331H34.2222V32.2776ZM34.2222 27.4165H32.2778V25.472H34.2222V27.4165ZM34.2222 22.5553H32.2778V20.6109H34.2222V22.5553Z" fill="white"/>
<path d="M16.7222 16.7221C16.9801 16.7221 17.2274 16.6197 17.4097 16.4374C17.592 16.255 17.6944 16.0077 17.6944 15.7499V9.91656C17.6944 9.65871 17.592 9.41142 17.4097 9.22909C17.2274 9.04677 16.9801 8.94434 16.7222 8.94434C16.4644 8.94434 16.2171 9.04677 16.0348 9.22909C15.8524 9.41142 15.75 9.65871 15.75 9.91656V15.7499C15.75 16.0077 15.8524 16.255 16.0348 16.4374C16.2171 16.6197 16.4644 16.7221 16.7222 16.7221Z" fill="white"/>
<path d="M32.2778 16.7221C32.5356 16.7221 32.7829 16.6197 32.9652 16.4374C33.1476 16.255 33.25 16.0077 33.25 15.7499V9.91656C33.25 9.65871 33.1476 9.41142 32.9652 9.22909C32.7829 9.04677 32.5356 8.94434 32.2778 8.94434C32.0199 8.94434 31.7726 9.04677 31.5903 9.22909C31.408 9.41142 31.3055 9.65871 31.3055 9.91656V15.7499C31.3055 16.0077 31.408 16.255 31.5903 16.4374C31.7726 16.6197 32.0199 16.7221 32.2778 16.7221Z" fill="white"/>
</svg>
