<svg width="50" height="50" viewBox="0 0 50 50" fill="none" xmlns="http://www.w3.org/2000/svg">
<rect width="50" height="50" rx="10" fill="#E35D1C"/>
<path d="M19.7114 42L19.0149 36.4C18.6376 36.2542 18.2824 36.0792 17.9493 35.875C17.6161 35.6708 17.2893 35.4521 16.9689 35.2188L11.7886 37.4062L7 29.0938L11.4838 25.6813C11.4548 25.4771 11.4403 25.2805 11.4403 25.0915V23.9103C11.4403 23.7201 11.4548 23.5229 11.4838 23.3187L7 19.9062L11.7886 11.5938L16.9689 13.7812C17.2881 13.5479 17.6219 13.3292 17.9702 13.125C18.3184 12.9208 18.6667 12.7458 19.0149 12.6L19.7114 7H29.2886L29.9851 12.6C30.3624 12.7458 30.7182 12.9208 31.0525 13.125C31.3868 13.3292 31.713 13.5479 32.0311 13.7812L37.2114 11.5938L42 19.9062L37.5162 23.3187C37.5452 23.5229 37.5597 23.7201 37.5597 23.9103V25.0897C37.5597 25.2799 37.5307 25.4771 37.4726 25.6813L41.9565 29.0938L37.1679 37.4062L32.0311 35.2188C31.7119 35.4521 31.3781 35.6708 31.0299 35.875C30.6816 36.0792 30.3333 36.2542 29.9851 36.4L29.2886 42H19.7114ZM24.5871 30.625C26.2703 30.625 27.7069 30.0271 28.8968 28.8313C30.0867 27.6354 30.6816 26.1917 30.6816 24.5C30.6816 22.8083 30.0867 21.3646 28.8968 20.1687C27.7069 18.9729 26.2703 18.375 24.5871 18.375C22.8748 18.375 21.4307 18.9729 20.2547 20.1687C19.0788 21.3646 18.4914 22.8083 18.4925 24.5C18.4937 26.1917 19.0817 27.6354 20.2565 28.8313C21.4313 30.0271 22.8748 30.625 24.5871 30.625Z" fill="white"/>
</svg>
