<svg width="50" height="50" viewBox="0 0 50 50" fill="none" xmlns="http://www.w3.org/2000/svg">
<path d="M0 10C0 4.47715 4.47715 0 10 0H40C45.5228 0 50 4.47715 50 10V40C50 45.5228 45.5228 50 40 50H10C4.47715 50 0 45.5228 0 40V10Z" fill="#F4AD58"/>
<path d="M36.2567 35.2672C37.8275 33.3773 38.92 31.1369 39.4417 28.7355C39.9635 26.3341 39.8992 23.8424 39.2543 21.4711C38.6095 19.0998 37.4029 16.9187 35.7368 15.1123C34.0707 13.3059 31.994 11.9274 29.6825 11.0934C27.3709 10.2593 24.8925 9.99424 22.4568 10.3206C20.0212 10.647 17.7 11.5552 15.6895 12.9684C13.6791 14.3816 12.0386 16.2582 10.9069 18.4395C9.7751 20.6208 9.18535 23.0426 9.18751 25.5C9.18843 29.0724 10.4473 32.5304 12.7433 35.2672L12.7214 35.2858C12.798 35.3777 12.8855 35.4564 12.9642 35.5472C13.0627 35.6599 13.1688 35.766 13.2705 35.8753C13.5753 36.2086 13.8925 36.5258 14.222 36.8269C14.3241 36.9173 14.4262 37.0055 14.5283 37.0916C14.8783 37.3942 15.2392 37.6793 15.6111 37.9469C15.6592 37.9797 15.703 38.0224 15.7511 38.0563V38.0432C18.3127 39.846 21.3687 40.8136 24.5011 40.8136C27.6335 40.8136 30.6895 39.846 33.2511 38.0432V38.0563C33.2992 38.0224 33.3419 37.9797 33.3911 37.9469C33.763 37.6786 34.1239 37.3935 34.4739 37.0916C34.576 37.0048 34.6781 36.9166 34.7802 36.8269C35.109 36.5258 35.4262 36.2086 35.7317 35.8753C35.8334 35.766 35.9384 35.6599 36.038 35.5472C36.1156 35.4564 36.2042 35.3777 36.2808 35.2847L36.2567 35.2672ZM24.5 16.75C25.4735 16.75 26.4251 17.0387 27.2345 17.5795C28.0439 18.1203 28.6747 18.889 29.0472 19.7884C29.4198 20.6877 29.5172 21.6774 29.3273 22.6321C29.1374 23.5869 28.6686 24.4639 27.9803 25.1522C27.292 25.8405 26.415 26.3093 25.4602 26.4992C24.5055 26.6891 23.5158 26.5916 22.6165 26.2191C21.7171 25.8466 20.9484 25.2157 20.4076 24.4063C19.8668 23.597 19.5781 22.6454 19.5781 21.6719C19.5781 20.3665 20.0967 19.1146 21.0197 18.1916C21.9427 17.2686 23.1946 16.75 24.5 16.75ZM15.7577 35.2672C15.7766 33.8311 16.3603 32.4602 17.3823 31.4511C18.4043 30.4419 19.7825 29.8758 21.2188 29.875H27.7813C29.2175 29.8758 30.5957 30.4419 31.6177 31.4511C32.6398 32.4602 33.2234 33.8311 33.2423 35.2672C30.8436 37.4288 27.729 38.6251 24.5 38.6251C21.271 38.6251 18.1564 37.4288 15.7577 35.2672Z" fill="white"/>
</svg>
