<svg width="50" height="50" viewBox="0 0 50 50" fill="none" xmlns="http://www.w3.org/2000/svg">
<rect width="50" height="50" rx="10" fill="#E35D1C"/>
<path d="M17.2471 9.85938L9.34131 11.8787V17.126L17.7871 14.4155L20.9795 11.3619L17.2471 9.85938ZM26.3252 13.7559C25.8193 13.7682 25.6348 13.8844 26.3867 14.2433C30.7139 16.3125 37.1943 22.1367 33.749 22.8271C22.873 25.0215 15.9141 27.9814 10.3161 34.7148C8.7377 36.6152 8.23047 41.8242 8.23047 41.8242H37.8027C37.8027 41.8242 28.3008 40.3818 27.6992 36.6494C26.6807 30.3467 40.9951 29.6289 41.1318 22.9844C41.1934 20.0312 35.0957 14.4401 28.5264 13.9254C28.1436 13.8953 26.9746 13.7401 26.3252 13.7559ZM15.1484 16.5518L12.9138 17.2695V25.623L15.374 24.9395L15.1484 16.5518Z" fill="white"/>
</svg>
