<svg width="50" height="50" viewBox="0 0 50 50" fill="none" xmlns="http://www.w3.org/2000/svg">
<rect width="50" height="50" rx="10" fill="#F4AD58"/>
<path fill-rule="evenodd" clip-rule="evenodd" d="M24.6667 36.7917C24.6667 36.4049 24.513 36.034 24.2395 35.7605C23.966 35.487 23.5951 35.3333 23.2083 35.3333H15.9167V14.9167H23.2083C23.5951 14.9167 23.966 14.763 24.2395 14.4895C24.513 14.216 24.6667 13.8451 24.6667 13.4583C24.6667 13.0716 24.513 12.7006 24.2395 12.4271C23.966 12.1536 23.5951 12 23.2083 12H15.9167C15.1431 12 14.4013 12.3073 13.8543 12.8543C13.3073 13.4013 13 14.1431 13 14.9167V35.3333C13 36.1069 13.3073 36.8487 13.8543 37.3957C14.4013 37.9427 15.1431 38.25 15.9167 38.25H23.2083C23.5951 38.25 23.966 38.0964 24.2395 37.8229C24.513 37.5494 24.6667 37.1784 24.6667 36.7917Z" fill="white"/>
<path d="M40.2906 26.1458C40.5568 25.8744 40.7065 25.5096 40.7077 25.1294V25.1206C40.7064 24.7354 40.5528 24.3663 40.2804 24.094L34.4471 18.2606C34.3125 18.1214 34.1516 18.0103 33.9737 17.9338C33.7958 17.8574 33.6044 17.8172 33.4108 17.8155C33.2171 17.8138 33.0251 17.8507 32.8459 17.924C32.6667 17.9974 32.5038 18.1056 32.3669 18.2426C32.23 18.3795 32.1217 18.5423 32.0484 18.7215C31.975 18.9008 31.9381 19.0928 31.9398 19.2864C31.9415 19.4801 31.9817 19.6714 32.0582 19.8494C32.1346 20.0273 32.2457 20.1882 32.385 20.3227L35.7289 23.6667H21.7493C21.3626 23.6667 20.9916 23.8203 20.7182 24.0938C20.4447 24.3673 20.291 24.7382 20.291 25.125C20.291 25.5118 20.4447 25.8827 20.7182 26.1562C20.9916 26.4297 21.3626 26.5834 21.7493 26.5834H35.7289L32.385 29.9273C32.1193 30.2024 31.9723 30.5707 31.9757 30.9531C31.979 31.3355 32.1324 31.7012 32.4027 31.9716C32.6731 32.242 33.0389 32.3954 33.4213 32.3987C33.8036 32.402 34.172 32.255 34.4471 31.9894L40.2804 26.1561L40.2906 26.1458Z" fill="white"/>
</svg>
