<svg width="27" height="31" viewBox="0 0 27 31" fill="none" xmlns="http://www.w3.org/2000/svg">
<path d="M26.5942 4.5625H18.9688V1.28125C18.9688 0.991169 18.8535 0.71297 18.6484 0.507852C18.4433 0.302734 18.1651 0.1875 17.875 0.1875H9.125C8.83492 0.1875 8.55672 0.302734 8.3516 0.507852C8.14648 0.71297 8.03125 0.991169 8.03125 1.28125V4.5625H0.405762L0.375 7.29688H2.63086L4.0042 28.7617C4.03896 29.3168 4.28385 29.8378 4.68906 30.2188C5.09427 30.5997 5.62938 30.812 6.18555 30.8125H20.8145C21.3703 30.8124 21.9053 30.6007 22.3107 30.2205C22.7161 29.8402 22.9616 29.3198 22.9972 28.7651L24.3691 7.29688H26.625L26.5942 4.5625ZM8.03125 26.4375L7.41602 8.9375H9.67188L10.2871 26.4375H8.03125ZM14.5938 26.4375H12.4062V8.9375H14.5938V26.4375ZM16.2344 4.5625H10.7656V2.64844C10.7656 2.57592 10.7944 2.50637 10.8457 2.45509C10.897 2.40381 10.9665 2.375 11.0391 2.375H15.9609C16.0335 2.375 16.103 2.40381 16.1543 2.45509C16.2056 2.50637 16.2344 2.57592 16.2344 2.64844V4.5625ZM18.9688 26.4375H16.7129L17.3281 8.9375H19.584L18.9688 26.4375Z" fill="#FF1B1B"/>
</svg>
