<svg width="60" height="60" viewBox="0 0 60 60" fill="none" xmlns="http://www.w3.org/2000/svg">
<path d="M0 10C0 4.47715 4.47715 0 10 0H60V50C60 55.5228 55.5228 60 50 60H0V10Z" fill="#F2913D"/>
<path d="M14.656 45.416C17.728 42.856 20.176 40.728 22 39.032C23.824 37.304 25.344 35.512 26.56 33.656C27.776 31.8 28.384 29.976 28.384 28.184C28.384 26.552 28 25.272 27.232 24.344C26.464 23.416 25.28 22.952 23.68 22.952C22.08 22.952 20.848 23.496 19.984 24.584C19.12 25.64 18.672 27.096 18.64 28.952H12.112C12.24 25.112 13.376 22.2 15.52 20.216C17.696 18.232 20.448 17.24 23.776 17.24C27.424 17.24 30.224 18.216 32.176 20.168C34.128 22.088 35.104 24.632 35.104 27.8C35.104 30.296 34.432 32.68 33.088 34.952C31.744 37.224 30.208 39.208 28.48 40.904C26.752 42.568 24.496 44.584 21.712 46.952H35.872V52.52H12.16V47.528L14.656 45.416ZM43.8505 53.336C42.6345 53.336 41.6265 52.968 40.8265 52.232C40.0585 51.464 39.6745 50.52 39.6745 49.4C39.6745 48.28 40.0585 47.352 40.8265 46.616C41.6265 45.848 42.6345 45.464 43.8505 45.464C45.0345 45.464 46.0105 45.848 46.7785 46.616C47.5465 47.352 47.9305 48.28 47.9305 49.4C47.9305 50.52 47.5465 51.464 46.7785 52.232C46.0105 52.968 45.0345 53.336 43.8505 53.336Z" fill="white"/>
</svg>
