<svg width="60" height="60" viewBox="0 0 60 60" fill="none" xmlns="http://www.w3.org/2000/svg">
<path d="M0 10C0 4.47715 4.47715 0 10 0H60V50C60 55.5228 55.5228 60 50 60H0V10Z" fill="#F2913D"/>
<path d="M10.256 46.184V40.904L25.952 18.44H33.776V40.328H38V46.184H33.776V53H27.056V46.184H10.256ZM27.488 25.64L17.648 40.328H27.488V25.64ZM46.0224 53.336C44.8064 53.336 43.7984 52.968 42.9984 52.232C42.2304 51.464 41.8464 50.52 41.8464 49.4C41.8464 48.28 42.2304 47.352 42.9984 46.616C43.7984 45.848 44.8064 45.464 46.0224 45.464C47.2064 45.464 48.1824 45.848 48.9504 46.616C49.7184 47.352 50.1024 48.28 50.1024 49.4C50.1024 50.52 49.7184 51.464 48.9504 52.232C48.1824 52.968 47.2064 53.336 46.0224 53.336Z" fill="white"/>
</svg>
