<svg width="60" height="60" viewBox="0 0 60 60" fill="none" xmlns="http://www.w3.org/2000/svg">
<path d="M0 10C0 4.47715 4.47715 0 10 0H60V50C60 55.5228 55.5228 60 50 60H0V10Z" fill="#F2913D"/>
<path d="M36.064 23.816H20.512V32.024C21.184 31.192 22.144 30.52 23.392 30.008C24.64 29.464 25.968 29.192 27.376 29.192C29.936 29.192 32.032 29.752 33.664 30.872C35.296 31.992 36.48 33.432 37.216 35.192C37.952 36.92 38.32 38.776 38.32 40.76C38.32 44.44 37.264 47.4 35.152 49.64C33.072 51.88 30.096 53 26.224 53C22.576 53 19.664 52.088 17.488 50.264C15.312 48.44 14.08 46.056 13.792 43.112H20.32C20.608 44.392 21.248 45.416 22.24 46.184C23.264 46.952 24.56 47.336 26.128 47.336C28.016 47.336 29.44 46.744 30.4 45.56C31.36 44.376 31.84 42.808 31.84 40.856C31.84 38.872 31.344 37.368 30.352 36.344C29.392 35.288 27.968 34.76 26.08 34.76C24.736 34.76 23.616 35.096 22.72 35.768C21.824 36.44 21.184 37.336 20.8 38.456H14.368V17.912H36.064V23.816ZM47.1786 53.336C45.9626 53.336 44.9546 52.968 44.1546 52.232C43.3866 51.464 43.0026 50.52 43.0026 49.4C43.0026 48.28 43.3866 47.352 44.1546 46.616C44.9546 45.848 45.9626 45.464 47.1786 45.464C48.3626 45.464 49.3386 45.848 50.1066 46.616C50.8746 47.352 51.2586 48.28 51.2586 49.4C51.2586 50.52 50.8746 51.464 50.1066 52.232C49.3386 52.968 48.3626 53.336 47.1786 53.336Z" fill="white"/>
</svg>
