<svg width="60" height="60" viewBox="0 0 60 60" fill="none" xmlns="http://www.w3.org/2000/svg">
<path d="M0 10C0 4.47715 4.47715 0 10 0H60V50C60 55.5228 55.5228 60 50 60H0V10Z" fill="#F2913D"/>
<path d="M28.688 26.744C28.368 25.4 27.808 24.392 27.008 23.72C26.24 23.048 25.12 22.712 23.648 22.712C21.44 22.712 19.808 23.608 18.752 25.4C17.728 27.16 17.2 30.04 17.168 34.04C17.936 32.76 19.056 31.768 20.528 31.064C22 30.328 23.6 29.96 25.328 29.96C27.408 29.96 29.248 30.408 30.848 31.304C32.448 32.2 33.696 33.512 34.592 35.24C35.488 36.936 35.936 38.984 35.936 41.384C35.936 43.656 35.472 45.688 34.544 47.48C33.648 49.24 32.32 50.616 30.56 51.608C28.8 52.6 26.704 53.096 24.272 53.096C20.944 53.096 18.32 52.36 16.4 50.888C14.512 49.416 13.184 47.368 12.416 44.744C11.68 42.088 11.312 38.824 11.312 34.952C11.312 29.096 12.32 24.68 14.336 21.704C16.352 18.696 19.536 17.192 23.888 17.192C27.248 17.192 29.856 18.104 31.712 19.928C33.568 21.752 34.64 24.024 34.928 26.744H28.688ZM23.792 35.48C22.096 35.48 20.672 35.976 19.52 36.968C18.368 37.96 17.792 39.4 17.792 41.288C17.792 43.176 18.32 44.664 19.376 45.752C20.464 46.84 21.984 47.384 23.936 47.384C25.664 47.384 27.024 46.856 28.016 45.8C29.04 44.744 29.552 43.32 29.552 41.528C29.552 39.672 29.056 38.2 28.064 37.112C27.104 36.024 25.68 35.48 23.792 35.48ZM44.9911 53.336C43.7751 53.336 42.7671 52.968 41.9671 52.232C41.1991 51.464 40.8151 50.52 40.8151 49.4C40.8151 48.28 41.1991 47.352 41.9671 46.616C42.7671 45.848 43.7751 45.464 44.9911 45.464C46.1751 45.464 47.1511 45.848 47.9191 46.616C48.6871 47.352 49.0711 48.28 49.0711 49.4C49.0711 50.52 48.6871 51.464 47.9191 52.232C47.1511 52.968 46.1751 53.336 44.9911 53.336Z" fill="white"/>
</svg>
