<svg width="1440" height="1080" viewBox="0 0 1440 1080" fill="none" xmlns="http://www.w3.org/2000/svg">
<g clip-path="url(#clip0_1154_1091)">
<rect width="1440" height="1080" fill="white"/>
<g filter="url(#filter0_i_1154_1091)">
<path fill-rule="evenodd" clip-rule="evenodd" d="M1439.11 653.447L1379.11 653.317C1319.11 653.187 1199.11 652.926 1079.09 659.53C959.072 667.114 839.032 680.583 719.013 687.186C598.993 693.79 478.994 693.53 359.014 686.405C239.034 679.28 119.074 665.291 59.0971 657.316L-0.882805 650.321L-0.147741 396.341L59.852 396.472C119.852 396.602 239.851 396.862 359.851 397.123C479.851 397.383 599.85 397.644 719.85 397.904C839.85 398.165 959.849 398.425 1079.85 398.686C1199.85 398.946 1319.85 399.207 1379.85 399.337L1439.85 399.467L1439.11 653.447Z" fill="#F4AD58"/>
<path d="M0.724121 93H1440.72V399.555H0.724121V93Z" fill="#F4AD58"/>
</g>
</g>
<defs>
<filter id="filter0_i_1154_1091" x="-0.882812" y="93" width="1441.61" height="602.951" filterUnits="userSpaceOnUse" color-interpolation-filters="sRGB">
<feFlood flood-opacity="0" result="BackgroundImageFix"/>
<feBlend mode="normal" in="SourceGraphic" in2="BackgroundImageFix" result="shape"/>
<feColorMatrix in="SourceAlpha" type="matrix" values="0 0 0 0 0 0 0 0 0 0 0 0 0 0 0 0 0 0 127 0" result="hardAlpha"/>
<feOffset dy="4"/>
<feGaussianBlur stdDeviation="2"/>
<feComposite in2="hardAlpha" operator="arithmetic" k2="-1" k3="1"/>
<feColorMatrix type="matrix" values="0 0 0 0 0 0 0 0 0 0 0 0 0 0 0 0 0 0 0.25 0"/>
<feBlend mode="normal" in2="shape" result="effect1_innerShadow_1154_1091"/>
</filter>
<clipPath id="clip0_1154_1091">
<rect width="1440" height="1080" fill="white"/>
</clipPath>
</defs>
</svg>
