<svg width="67" height="67" viewBox="0 0 67 67" fill="none" xmlns="http://www.w3.org/2000/svg">
<circle cx="33.5" cy="33.5" r="33.5" fill="#E75109"/>
<path d="M25.6896 28.5034C25.792 26.4554 26.5088 24.8784 27.84 23.7725C29.1917 22.6461 30.9632 22.0829 33.1546 22.0829C34.6496 22.0829 35.9296 22.3491 36.9946 22.8816C38.0595 23.3936 38.8582 24.1002 39.3907 25.0013C39.9437 25.8819 40.2202 26.8854 40.2202 28.0118C40.2202 29.3021 39.8822 30.3978 39.2064 31.2989C38.551 32.1795 37.7626 32.7734 36.841 33.0806V33.2035C38.0288 33.5722 38.9504 34.2275 39.6058 35.1696C40.2816 36.1117 40.6195 37.32 40.6195 38.7946C40.6195 40.0234 40.3328 41.119 39.7594 42.0816C39.2064 43.0442 38.377 43.8019 37.271 44.3549C36.1856 44.8874 34.8749 45.1536 33.3389 45.1536C31.0246 45.1536 29.1405 44.5699 27.6864 43.4026C26.2323 42.2352 25.4643 40.5149 25.3824 38.2416H29.5603C29.6013 39.2451 29.9392 40.0541 30.5741 40.6685C31.2294 41.2624 32.1203 41.5594 33.2467 41.5594C34.2912 41.5594 35.0899 41.2726 35.6429 40.6992C36.2163 40.1053 36.503 39.3475 36.503 38.4259C36.503 37.1971 36.1139 36.3165 35.3357 35.784C34.5574 35.2515 33.3491 34.9853 31.7107 34.9853H30.8198V31.4525H31.7107C34.6189 31.4525 36.073 30.4797 36.073 28.5341C36.073 27.6534 35.8067 26.9674 35.2742 26.4758C34.7622 25.9843 34.0147 25.7386 33.0317 25.7386C32.0691 25.7386 31.3216 26.0048 30.7891 26.5373C30.2771 27.0493 29.9802 27.7046 29.8982 28.5034H25.6896Z" fill="white"/>
</svg>
