<svg width="16" height="23" viewBox="0 0 16 23" fill="none" xmlns="http://www.w3.org/2000/svg">
<path d="M1.97984 18.1462C3.94592 16.5078 5.51264 15.1459 6.68 14.0605C7.84736 12.9546 8.82016 11.8077 9.5984 10.6198C10.3766 9.432 10.7658 8.26464 10.7658 7.11776C10.7658 6.07328 10.52 5.25408 10.0285 4.66016C9.53696 4.06624 8.7792 3.76928 7.7552 3.76928C6.7312 3.76928 5.94272 4.11744 5.38976 4.81376C4.8368 5.4896 4.55008 6.42144 4.5296 7.60928H0.35168C0.4336 5.15168 1.16064 3.288 2.5328 2.01824C3.92544 0.748479 5.68672 0.113599 7.81664 0.113599C10.1514 0.113599 11.9434 0.738239 13.1926 1.98752C14.4419 3.21632 15.0666 4.84448 15.0666 6.872C15.0666 8.46944 14.6365 9.9952 13.7763 11.4493C12.9162 12.9034 11.9331 14.1731 10.8272 15.2586C9.72128 16.3235 8.27744 17.6138 6.49568 19.1293H15.5581V22.6928H0.3824V19.4979L1.97984 18.1462Z" fill="white"/>
</svg>
