<svg width="1440" height="1210" viewBox="0 0 1440 1210" fill="none" xmlns="http://www.w3.org/2000/svg">
<g clip-path="url(#clip0_869_864)">
<rect width="1440" height="1210" fill="white"/>
<path fill-rule="evenodd" clip-rule="evenodd" d="M1440.11 647.187L1380.11 647.036C1320.11 646.886 1200.11 646.585 1080.09 654.211C960.071 662.969 840.032 678.522 720.012 686.148C599.993 693.774 479.993 693.473 360.013 685.245C240.034 677.018 120.074 660.864 60.0966 651.654L0.116688 643.577L0.851751 350.289L60.8516 350.44C120.851 350.59 240.851 350.891 360.851 351.191C480.85 351.492 600.85 351.793 720.85 352.094C840.849 352.395 960.849 352.695 1080.85 352.996C1200.85 353.297 1320.85 353.598 1380.85 353.748L1440.85 353.899L1440.11 647.187Z" fill="#F4AD58"/>
<path d="M1.72461 0H1441.72V354H1.72461V0Z" fill="#F4AD58"/>
</g>
<defs>
<clipPath id="clip0_869_864">
<rect width="1440" height="1210" fill="white"/>
</clipPath>
</defs>
</svg>
