<svg width="75" height="75" viewBox="0 0 75 75" fill="none" xmlns="http://www.w3.org/2000/svg">
<g filter="url(#filter0_d_2006_1118)">
<circle cx="37.5" cy="33.5" r="33.5" fill="#E75109"/>
</g>
<path d="M30.5667 41.7574C33.1677 39.6685 35.2054 37.9584 36.68 36.6272C38.1546 35.2755 39.3936 33.8726 40.3971 32.4186C41.4211 30.944 41.9331 29.5002 41.9331 28.087C41.9331 26.7558 41.6054 25.7114 40.9501 24.9536C40.3152 24.1754 39.281 23.7862 37.8474 23.7862C36.4547 23.7862 35.3693 24.2266 34.591 25.1072C33.8333 25.9674 33.4237 27.1245 33.3622 28.5786H30.6589C30.7408 26.2848 31.4371 24.5133 32.7478 23.264C34.0586 22.0147 35.7482 21.3901 37.8166 21.3901C39.9261 21.3901 41.5952 21.9738 42.824 23.1411C44.0733 24.3085 44.6979 25.9162 44.6979 27.9642C44.6979 29.664 44.1859 31.3229 43.1619 32.9408C42.1584 34.5382 41.0115 35.9514 39.7213 37.1802C38.431 38.3885 36.7824 39.8016 34.7754 41.4195H45.343V43.7542H30.5667V41.7574Z" fill="white"/>
<defs>
<filter id="filter0_d_2006_1118" x="0" y="0" width="75" height="75" filterUnits="userSpaceOnUse" color-interpolation-filters="sRGB">
<feFlood flood-opacity="0" result="BackgroundImageFix"/>
<feColorMatrix in="SourceAlpha" type="matrix" values="0 0 0 0 0 0 0 0 0 0 0 0 0 0 0 0 0 0 127 0" result="hardAlpha"/>
<feOffset dy="4"/>
<feGaussianBlur stdDeviation="2"/>
<feComposite in2="hardAlpha" operator="out"/>
<feColorMatrix type="matrix" values="0 0 0 0 0 0 0 0 0 0 0 0 0 0 0 0 0 0 0.25 0"/>
<feBlend mode="normal" in2="BackgroundImageFix" result="effect1_dropShadow_2006_1118"/>
<feBlend mode="normal" in="SourceGraphic" in2="effect1_dropShadow_2006_1118" result="shape"/>
</filter>
</defs>
</svg>
