<svg width="60" height="60" viewBox="0 0 60 60" fill="none" xmlns="http://www.w3.org/2000/svg">
<path d="M60 30C60 46.5685 46.5685 60 30 60C13.4315 60 0 46.5685 0 30C0 13.4315 13.4315 0 30 0C46.5685 0 60 13.4315 60 30Z" fill="#E35D1C"/>
<path d="M24.9798 36.1462C26.9459 34.5078 28.5126 33.1459 29.68 32.0605C30.8474 30.9546 31.8202 29.8077 32.5984 28.6198C33.3766 27.432 33.7658 26.2646 33.7658 25.1178C33.7658 24.0733 33.52 23.2541 33.0285 22.6602C32.537 22.0662 31.7792 21.7693 30.7552 21.7693C29.7312 21.7693 28.9427 22.1174 28.3898 22.8138C27.8368 23.4896 27.5501 24.4214 27.5296 25.6093H23.3517C23.4336 23.1517 24.1606 21.288 25.5328 20.0182C26.9254 18.7485 28.6867 18.1136 30.8166 18.1136C33.1514 18.1136 34.9434 18.7382 36.1926 19.9875C37.4419 21.2163 38.0666 22.8445 38.0666 24.872C38.0666 26.4694 37.6365 27.9952 36.7763 29.4493C35.9162 30.9034 34.9331 32.1731 33.8272 33.2586C32.7213 34.3235 31.2774 35.6138 29.4957 37.1293H38.5581V40.6928H23.3824V37.4979L24.9798 36.1462Z" fill="white"/>
</svg>
