<svg width="60" height="60" viewBox="0 0 60 60" fill="none" xmlns="http://www.w3.org/2000/svg">
<path d="M60 30C60 46.5685 46.5685 60 30 60C13.4315 60 0 46.5685 0 30C0 13.4315 13.4315 0 30 0C46.5685 0 60 13.4315 60 30Z" fill="#E35D1C"/>
<path d="M21.6896 25.5034C21.792 23.4554 22.5088 21.8784 23.84 20.7725C25.1917 19.6461 26.9632 19.0829 29.1546 19.0829C30.6496 19.0829 31.9296 19.3491 32.9946 19.8816C34.0595 20.3936 34.8582 21.1002 35.3907 22.0013C35.9437 22.8819 36.2202 23.8854 36.2202 25.0118C36.2202 26.3021 35.8822 27.3978 35.2064 28.2989C34.551 29.1795 33.7626 29.7734 32.841 30.0806V30.2035C34.0288 30.5722 34.9504 31.2275 35.6058 32.1696C36.2816 33.1117 36.6195 34.32 36.6195 35.7946C36.6195 37.0234 36.3328 38.119 35.7594 39.0816C35.2064 40.0442 34.377 40.8019 33.271 41.3549C32.1856 41.8874 30.8749 42.1536 29.3389 42.1536C27.0246 42.1536 25.1405 41.5699 23.6864 40.4026C22.2323 39.2352 21.4643 37.5149 21.3824 35.2416H25.5603C25.6013 36.2451 25.9392 37.0541 26.5741 37.6685C27.2294 38.2624 28.1203 38.5594 29.2467 38.5594C30.2912 38.5594 31.0899 38.2726 31.6429 37.6992C32.2163 37.1053 32.503 36.3475 32.503 35.4259C32.503 34.1971 32.1139 33.3165 31.3357 32.784C30.5574 32.2515 29.3491 31.9853 27.7107 31.9853H26.8198V28.4525H27.7107C30.6189 28.4525 32.073 27.4797 32.073 25.5341C32.073 24.6534 31.8067 23.9674 31.2742 23.4758C30.7622 22.9843 30.0147 22.7386 29.0317 22.7386C28.0691 22.7386 27.3216 23.0048 26.7891 23.5373C26.2771 24.0493 25.9802 24.7046 25.8982 25.5034H21.6896Z" fill="white"/>
</svg>
