<svg width="12" height="8" viewBox="0 0 12 8" fill="none" xmlns="http://www.w3.org/2000/svg">
<path d="M0.78425 6.64717C0.87602 6.74061 0.985317 6.81503 1.10589 6.86618C1.22645 6.91733 1.35593 6.94419 1.48689 6.94524C1.61785 6.94629 1.74774 6.92149 1.86911 6.87228C1.99048 6.82307 2.10095 6.7504 2.1942 6.65844L6.1051 2.80958L9.95396 6.72048C10.1394 6.90894 10.3922 7.01601 10.6566 7.01812C10.921 7.02024 11.1754 6.91723 11.3639 6.73175C11.5524 6.54627 11.6594 6.29352 11.6616 6.02911C11.6637 5.76469 11.5607 5.51026 11.3752 5.32179L6.82202 0.695247C6.73025 0.601807 6.62096 0.527383 6.50039 0.476236C6.37982 0.425089 6.25035 0.398224 6.11938 0.397177C5.98842 0.39613 5.85854 0.420922 5.73716 0.470134C5.61579 0.519347 5.50532 0.592014 5.41207 0.683975L0.785522 5.23713C0.402496 5.61408 0.39738 6.25406 0.78425 6.64717Z" fill="white"/>
</svg>
