<svg width="57" height="56" viewBox="0 0 57 56" fill="none" xmlns="http://www.w3.org/2000/svg">
<path d="M57 27.8092C57 22.3091 55.3285 16.9325 52.1969 12.3593C49.0653 7.7861 44.6142 4.22173 39.4065 2.11692C34.1988 0.0121139 28.4684 -0.5386 22.9399 0.534422C17.4115 1.60745 12.3333 4.25601 8.34747 8.14519C4.36167 12.0344 1.64731 16.9895 0.547631 22.3839C-0.552047 27.7784 0.0123477 33.3699 2.16944 38.4513C4.32654 43.5328 7.97946 47.876 12.6663 50.9317C17.3531 53.9874 22.8632 55.6184 28.5 55.6184C36.0587 55.6184 43.3078 52.6885 48.6525 47.4733C53.9973 42.2581 57 35.1847 57 27.8092ZM44.7857 29.7956H20.0518L31.4111 40.9332L28.5 43.7002L12.2143 27.8092L28.5 11.9183L31.4111 14.7528L20.0518 25.8229H44.7857V29.7956Z" fill="#E35D1C"/>
</svg>
