<svg width="57" height="56" viewBox="0 0 57 56" fill="none" xmlns="http://www.w3.org/2000/svg">
<path d="M0 27.809C0 22.3089 1.6715 16.9322 4.80312 12.3591C7.93474 7.78586 12.3858 4.22149 17.5935 2.11668C22.8012 0.0118704 28.5316 -0.538843 34.0601 0.53418C39.5885 1.6072 44.6667 4.25577 48.6525 8.14495C52.6383 12.0341 55.3527 16.9893 56.4524 22.3837C57.552 27.7782 56.9877 33.3696 54.8306 38.4511C52.6735 43.5326 49.0205 47.8758 44.3337 50.9315C39.6469 53.9872 34.1368 55.6182 28.5 55.6182C20.9413 55.6182 13.6922 52.6883 8.34746 47.473C3.00267 42.2578 0 35.1844 0 27.809ZM12.2143 29.7954H36.9482L25.5889 40.9329L28.5 43.7L44.7857 27.809L28.5 11.918L25.5889 14.7526L36.9482 25.8226H12.2143V29.7954Z" fill="#F2913D"/>
</svg>
