<svg width="57" height="56" viewBox="0 0 57 56" fill="none" xmlns="http://www.w3.org/2000/svg">
<path d="M0 27.8092C0 22.3091 1.6715 16.9325 4.80312 12.3593C7.93474 7.78611 12.3858 4.22173 17.5935 2.11692C22.8012 0.0121145 28.5316 -0.538599 34.0601 0.534424C39.5885 1.60745 44.6667 4.25601 48.6525 8.1452C52.6383 12.0344 55.3527 16.9895 56.4524 22.3839C57.552 27.7784 56.9877 33.3699 54.8306 38.4513C52.6735 43.5328 49.0205 47.876 44.3337 50.9317C39.6469 53.9874 34.1368 55.6184 28.5 55.6184C20.9413 55.6184 13.6922 52.6885 8.34746 47.4733C3.00267 42.2581 0 35.1847 0 27.8092ZM12.2143 29.7956H36.9482L25.5889 40.9332L28.5 43.7002L44.7857 27.8092L28.5 11.9183L25.5889 14.7528L36.9482 25.8229H12.2143V29.7956Z" fill="#E35D1C"/>
</svg>
