<svg width="57" height="56" viewBox="0 0 57 56" fill="none" xmlns="http://www.w3.org/2000/svg">
<path d="M57 27.809C57 22.3089 55.3285 16.9322 52.1969 12.3591C49.0653 7.78586 44.6142 4.22149 39.4065 2.11668C34.1988 0.0118698 28.4684 -0.538844 22.9399 0.534178C17.4115 1.6072 12.3333 4.25577 8.34747 8.14495C4.36167 12.0341 1.64731 16.9892 0.547631 22.3837C-0.552047 27.7781 0.0123477 33.3696 2.16944 38.4511C4.32654 43.5326 7.97946 47.8758 12.6663 50.9315C17.3531 53.9872 22.8632 55.6182 28.5 55.6182C36.0587 55.6182 43.3078 52.6883 48.6525 47.473C53.9973 42.2578 57 35.1844 57 27.809ZM44.7857 29.7954H20.0518L31.4111 40.9329L28.5 43.6999L12.2143 27.809L28.5 11.918L31.4111 14.7526L20.0518 25.8226H44.7857V29.7954Z" fill="#F2913D"/>
</svg>
