<svg width="1440" height="601" viewBox="0 0 1440 601" fill="none" xmlns="http://www.w3.org/2000/svg">
<g filter="url(#filter0_i_607_1000)">
<path fill-rule="evenodd" clip-rule="evenodd" d="M1439.11 560.447L1379.11 560.317C1319.11 560.187 1199.11 559.926 1079.09 566.53C959.072 574.114 839.033 587.583 719.013 594.186C598.994 600.79 478.994 600.53 359.014 593.405C239.035 586.28 119.075 572.291 59.0976 564.316L-0.882317 557.321L-0.147253 303.341L59.8525 303.472C119.852 303.602 239.852 303.862 359.852 304.123C479.851 304.383 599.851 304.644 719.85 304.904C839.85 305.165 959.85 305.425 1079.85 305.686C1199.85 305.946 1319.85 306.207 1379.85 306.337L1439.85 306.467L1439.11 560.447Z" fill="#F4AD58"/>
<path d="M0.724609 0H1440.72V306.555H0.724609V0Z" fill="#F4AD58"/>
</g>
<defs>
<filter id="filter0_i_607_1000" x="-0.881836" y="0" width="1441.61" height="602.951" filterUnits="userSpaceOnUse" color-interpolation-filters="sRGB">
<feFlood flood-opacity="0" result="BackgroundImageFix"/>
<feBlend mode="normal" in="SourceGraphic" in2="BackgroundImageFix" result="shape"/>
<feColorMatrix in="SourceAlpha" type="matrix" values="0 0 0 0 0 0 0 0 0 0 0 0 0 0 0 0 0 0 127 0" result="hardAlpha"/>
<feOffset dy="4"/>
<feGaussianBlur stdDeviation="2"/>
<feComposite in2="hardAlpha" operator="arithmetic" k2="-1" k3="1"/>
<feColorMatrix type="matrix" values="0 0 0 0 0 0 0 0 0 0 0 0 0 0 0 0 0 0 0.25 0"/>
<feBlend mode="normal" in2="shape" result="effect1_innerShadow_607_1000"/>
</filter>
</defs>
</svg>
