<svg width="63" height="63" viewBox="0 0 63 63" fill="none" xmlns="http://www.w3.org/2000/svg">
<circle cx="31.5" cy="31.5" r="31.5" fill="#E75109"/>
<path d="M26.359 21.5574V34.8285C26.359 36.2826 26.7379 37.3987 27.4957 38.177C28.2534 38.9347 29.3184 39.3136 30.6906 39.3136C32.0832 39.3136 33.1584 38.9347 33.9162 38.177C34.6739 37.3987 35.0528 36.2826 35.0528 34.8285V21.5574H39.3843V34.7978C39.3843 36.6205 38.985 38.1667 38.1862 39.4365C37.408 40.6858 36.3533 41.6278 35.0221 42.2627C33.7114 42.8976 32.247 43.215 30.6291 43.215C29.0317 43.215 27.5776 42.8976 26.2669 42.2627C24.9766 41.6278 23.9526 40.6858 23.1949 39.4365C22.4371 38.1667 22.0582 36.6205 22.0582 34.7978V21.5574H26.359Z" fill="white"/>
</svg>
