<svg width="35" height="35" viewBox="0 0 35 35" fill="none" xmlns="http://www.w3.org/2000/svg">
<path d="M29.2567 27.2672C30.8275 25.3773 31.92 23.1369 32.4417 20.7355C32.9635 18.3341 32.8992 15.8424 32.2543 13.4711C31.6095 11.0998 30.4029 8.91871 28.7368 7.11233C27.0707 5.30595 24.994 3.92741 22.6825 3.09335C20.3709 2.25929 17.8925 1.99424 15.4568 2.32061C13.0212 2.64699 10.7 3.55519 8.68954 4.96839C6.67911 6.38159 5.03863 8.25822 3.90687 10.4395C2.7751 12.6208 2.18535 15.0426 2.18751 17.5C2.18843 21.0724 3.44731 24.5304 5.74329 27.2672L5.72141 27.2858C5.79797 27.3777 5.88547 27.4564 5.96422 27.5472C6.06266 27.6599 6.16876 27.766 6.27047 27.8753C6.57527 28.2086 6.89245 28.5258 7.22204 28.8269C7.32412 28.9173 7.4262 29.0055 7.52829 29.0916C7.87829 29.3942 8.23922 29.6793 8.6111 29.9469C8.65922 29.9797 8.70298 30.0224 8.7511 30.0563V30.0432C11.3127 31.846 14.3687 32.8136 17.5011 32.8136C20.6335 32.8136 23.6895 31.846 26.2511 30.0432V30.0563C26.2992 30.0224 26.3419 29.9797 26.3911 29.9469C26.763 29.6786 27.1239 29.3935 27.4739 29.0916C27.576 29.0048 27.6781 28.9166 27.7802 28.8269C28.109 28.5258 28.4262 28.2086 28.7317 27.8753C28.8334 27.766 28.9384 27.6599 29.038 27.5472C29.1156 27.4564 29.2042 27.3777 29.2808 27.2847L29.2567 27.2672ZM17.5 8.75003C18.4735 8.75003 19.4251 9.03869 20.2345 9.57951C21.0439 10.1203 21.6747 10.889 22.0472 11.7884C22.4198 12.6877 22.5172 13.6774 22.3273 14.6321C22.1374 15.5869 21.6686 16.4639 20.9803 17.1522C20.292 17.8405 19.415 18.3093 18.4602 18.4992C17.5055 18.6891 16.5158 18.5916 15.6165 18.2191C14.7171 17.8466 13.9484 17.2157 13.4076 16.4063C12.8668 15.597 12.5781 14.6454 12.5781 13.6719C12.5781 12.3665 13.0967 11.1146 14.0197 10.1916C14.9427 9.26858 16.1946 8.75003 17.5 8.75003ZM8.75766 27.2672C8.77664 25.8311 9.36026 24.4602 10.3823 23.4511C11.4043 22.4419 12.7825 21.8758 14.2188 21.875H20.7813C22.2175 21.8758 23.5957 22.4419 24.6177 23.4511C25.6398 24.4602 26.2234 25.8311 26.2423 27.2672C23.8436 29.4288 20.729 30.6251 17.5 30.6251C14.271 30.6251 11.1564 29.4288 8.75766 27.2672Z" fill="white"/>
</svg>
