<svg width="241" height="300" viewBox="0 0 241 300" fill="none" xmlns="http://www.w3.org/2000/svg">
<path d="M0 10C0 4.47716 4.47715 0 10 0H231C236.523 0 241 4.47715 241 10V300H0V10Z" fill="#F2F2F2"/>
<path d="M0 100C0 94.4772 4.47715 90 10 90H231C236.523 90 241 94.4772 241 100V217.75C241 229.348 231.598 238.75 220 238.75H21C9.40202 238.75 0 229.348 0 217.75V100Z" fill="#F2913D"/>
<path d="M0 161.25C0 155.727 4.47715 151.25 10 151.25H231C236.523 151.25 241 155.727 241 161.25V300H0V161.25Z" fill="#F2913D"/>
</svg>
