<svg width="15" height="15" viewBox="0 0 15 15" fill="none" xmlns="http://www.w3.org/2000/svg">
<g clip-path="url(#clip0_2792_791)">
<path d="M13.4724 2.49999C13.4156 2.49414 13.3584 2.49414 13.3016 2.49999H1.6349C1.56012 2.50115 1.48584 2.51236 1.41406 2.53333L7.4349 8.52916L13.4724 2.49999Z" fill="#F2913D"/>
<path d="M14.088 3.0791L8.02135 9.12077C7.86522 9.27598 7.65401 9.3631 7.43385 9.3631C7.2137 9.3631 7.00249 9.27598 6.84635 9.12077L0.833854 3.12493C0.815371 3.19287 0.80557 3.26287 0.804688 3.33327V11.6666C0.804688 11.8876 0.892485 12.0996 1.04877 12.2559C1.20505 12.4121 1.41701 12.4999 1.63802 12.4999H13.3047C13.5257 12.4999 13.7377 12.4121 13.8939 12.2559C14.0502 12.0996 14.138 11.8876 14.138 11.6666V3.33327C14.1347 3.24646 14.1178 3.1607 14.088 3.0791ZM2.20885 11.6666H1.62969V11.0708L4.65885 8.0666L5.24635 8.6541L2.20885 11.6666ZM13.2964 11.6666H12.713L9.67552 8.6541L10.263 8.0666L13.2922 11.0708L13.2964 11.6666Z" fill="#F2913D"/>
</g>
<defs>
<clipPath id="clip0_2792_791">
<rect width="15" height="15" fill="white"/>
</clipPath>
</defs>
</svg>
