<svg width="35" height="35" viewBox="0 0 35 35" fill="none" xmlns="http://www.w3.org/2000/svg">
<path d="M0 32.3075V2.6925C0 1.9784 0.283673 1.29356 0.788615 0.788615C1.29356 0.283673 1.9784 0 2.6925 0L32.3075 0C33.0216 0 33.7064 0.283673 34.2114 0.788615C34.7163 1.29356 35 1.9784 35 2.6925V32.3075C35 33.0216 34.7163 33.7064 34.2114 34.2114C33.7064 34.7163 33.0216 35 32.3075 35H24.2325V22.2375H26.1425C26.5781 22.2375 26.9959 22.0645 27.3039 21.7564C27.612 21.4484 27.785 21.0306 27.785 20.595V18.525C27.7857 18.3091 27.7436 18.0952 27.6613 17.8957C27.579 17.6961 27.458 17.5148 27.3054 17.3621C27.1527 17.2095 26.9714 17.0885 26.7718 17.0062C26.5723 16.9239 26.3584 16.8818 26.1425 16.8825H24.3375V14.35C24.3375 12.0875 25.3625 12.0875 26.385 12.0875H27.7025C27.9192 12.0957 28.1352 12.0568 28.3354 11.9735C28.5357 11.8902 28.7155 11.7645 28.8625 11.605C29.0187 11.4553 29.1423 11.2751 29.2258 11.0755C29.3092 10.8759 29.3507 10.6613 29.3475 10.445V8.455C29.361 8.01197 29.1983 7.58165 28.8951 7.25832C28.592 6.93499 28.173 6.74501 27.73 6.73H24.635C23.7315 6.69578 22.8313 6.85815 21.9968 7.2059C21.1622 7.55364 20.413 8.07846 19.8011 8.74409C19.1892 9.40971 18.7292 10.2003 18.4527 11.0611C18.1763 11.922 18.09 12.8326 18.2 13.73V16.88H16.475C16.2572 16.8767 16.0409 16.9167 15.8388 16.9978C15.6366 17.0788 15.4526 17.1993 15.2974 17.3521C15.1422 17.505 15.019 17.6872 14.9349 17.8881C14.8508 18.089 14.8075 18.3047 14.8075 18.5225V20.5975C14.8078 20.8153 14.8514 21.0309 14.9358 21.2317C15.0202 21.4325 15.1437 21.6145 15.2991 21.7671C15.4546 21.9198 15.6388 22.0399 15.8411 22.1207C16.0434 22.2014 16.2597 22.2411 16.4775 22.2375H18.2V35H2.6925C1.9784 35 1.29356 34.7163 0.788615 34.2114C0.283673 33.7064 0 33.0216 0 32.3075Z" fill="#F2913D"/>
</svg>
