<svg width="50" height="50" viewBox="0 0 50 50" fill="none" xmlns="http://www.w3.org/2000/svg">
<rect width="50" height="50" rx="10" fill="#F4AD58"/>
<path d="M41.5289 20.4749L41.1089 20.0549C41.3806 19.4903 41.4738 18.8563 41.376 18.2374C41.2782 17.6185 40.9941 17.0442 40.5616 16.5909C40.2669 16.2966 39.9126 16.0689 39.5225 15.923C39.1324 15.7771 38.7156 15.7164 38.3002 15.745C37.9097 15.7671 37.5262 15.8583 37.1675 16.0143V8.94434H9.94531V40.0554H37.1675V24.3249L40.1717 21.3207L40.4284 21.5764C40.462 21.6099 40.4887 21.6496 40.507 21.6934C40.5252 21.7372 40.5346 21.7842 40.5346 21.8316C40.5346 21.8791 40.5252 21.926 40.507 21.9698C40.4887 22.0136 40.462 22.0534 40.4284 22.0868L38.1407 24.3754C37.9948 24.5213 37.9127 24.7191 37.9127 24.9254C37.9126 25.1317 37.9944 25.3296 38.1402 25.4755C38.2861 25.6215 38.4839 25.7035 38.6902 25.7036C38.8965 25.7037 39.0944 25.6218 39.2403 25.476L41.5289 23.1874C41.8881 22.8274 42.0898 22.3397 42.0898 21.8311C42.0898 21.3226 41.8881 20.8349 41.5289 20.4749ZM15.7786 14.9721H31.3361V16.5277H15.7786V14.9721ZM15.7786 18.861H31.3361V20.4166H15.7786V18.861ZM15.7786 22.7499H25.987V24.3054H15.7786V22.7499ZM30.1598 36.0654H22.5725C21.6956 36.0654 20.875 35.9828 20.4395 35.2643C19.9932 34.5303 20.4366 33.6777 20.7603 33.0535C20.8177 32.9436 20.6903 32.8075 20.5445 32.9582C20.1167 33.3977 19.4361 34.1891 18.8888 34.8249C18.3103 35.4977 18.0809 35.7611 17.9584 35.872C17.8288 36.0225 17.6527 36.1257 17.458 36.1651C17.2633 36.2045 17.0611 36.178 16.8831 36.0898C16.7234 35.9974 16.5983 35.8553 16.5269 35.6852C16.4555 35.5151 16.4416 35.3264 16.4874 35.1477C16.5282 34.9046 17.2224 32.1999 17.8514 29.7684C17.0153 31.2529 14.3611 35.6989 14.2367 35.9079C14.1441 36.063 13.9937 36.175 13.8186 36.2192C13.6435 36.2634 13.458 36.2363 13.3029 36.1437C13.1478 36.0511 13.0358 35.9008 12.9916 35.7256C12.9474 35.5505 12.9746 35.365 13.0671 35.2099C13.1011 35.1545 16.4261 29.5827 16.8452 28.7738C16.9818 28.4504 17.236 28.191 17.5565 28.0479C17.877 27.9048 18.2399 27.8887 18.5718 28.0028C18.8715 28.1246 19.1138 28.3554 19.25 28.6488C19.3862 28.9421 19.4062 29.2762 19.3059 29.5836C18.9559 30.9331 18.5991 32.3175 18.3239 33.3948C18.7682 32.8814 19.233 32.3545 19.5684 32.0093C19.8266 31.6991 20.1793 31.4821 20.5726 31.3913C20.9659 31.3005 21.3781 31.341 21.7461 31.5067C21.9752 31.6227 22.1587 31.8123 22.2672 32.0449C22.3758 32.2776 22.4032 32.54 22.345 32.79C22.2519 33.0996 22.1254 33.3982 21.9678 33.6806C21.7082 34.2202 21.8317 34.7034 22.5725 34.7034H30.1588C30.3393 34.7034 30.5124 34.7751 30.64 34.9027C30.7676 35.0303 30.8393 35.2034 30.8393 35.3839C30.8393 35.5644 30.7676 35.7375 30.64 35.8651C30.5124 35.9928 30.3393 36.0645 30.1588 36.0645L30.1598 36.0654ZM28.1366 31.1557L25.6049 31.8236C25.568 31.8339 25.5291 31.834 25.4922 31.8241C25.4553 31.8142 25.4217 31.7946 25.3949 31.7673C25.3674 31.7406 25.3476 31.707 25.3375 31.6701C25.3274 31.6332 25.3274 31.5942 25.3375 31.5573L25.9831 29.0304L32.39 22.6235L34.5289 24.7624L28.1366 31.1557ZM39.2841 20.0073L35.6285 23.6628L33.4896 21.5239L37.1452 17.8684C37.4721 17.5323 37.912 17.3293 38.3799 17.2986L38.4674 17.2957C38.651 17.2923 38.8335 17.3255 39.0041 17.3934C39.1747 17.4614 39.33 17.5627 39.461 17.6914C39.742 18.0231 39.881 18.4522 39.8479 18.8857C39.8148 19.3191 39.6122 19.7221 39.2841 20.0073Z" fill="white"/>
</svg>
