<?xml version="1.0" standalone="no"?>
<!DOCTYPE svg PUBLIC "-//W3C//DTD SVG 20010904//EN"
 "http://www.w3.org/TR/2001/REC-SVG-20010904/DTD/svg10.dtd">
<svg version="1.0" xmlns="http://www.w3.org/2000/svg"
 width="4167.000000pt" height="2917.000000pt" viewBox="0 0 4167.000000 2917.000000"
 preserveAspectRatio="xMidYMid meet">

<g transform="translate(0.000000,2917.000000) scale(0.100000,-0.100000)"
fill="#000000" stroke="none">
<path d="M5608 16960 c-254 -43 -481 -206 -597 -429 -83 -160 -121 -370 -102
-560 6 -57 9 -106 6 -109 -2 -3 -37 4 -77 16 -116 33 -183 43 -343 49 -120 5
-168 2 -235 -11 -293 -60 -516 -271 -590 -560 -24 -96 -26 -243 -5 -335 74
-311 369 -579 830 -754 249 -94 459 -145 1044 -252 553 -101 722 -150 971
-281 149 -79 250 -154 367 -272 83 -83 109 -103 132 -104 38 -1 79 25 87 56 8
32 -20 344 -56 631 -122 961 -337 1890 -555 2400 -105 245 -242 389 -443 468
-134 52 -299 70 -434 47z m-27 -1334 c230 -49 389 -245 391 -481 4 -400 -438
-636 -772 -413 -336 224 -268 743 115 876 99 35 165 39 266 18z"/>
</g>
</svg>
