<svg width="60" height="60" viewBox="0 0 60 60" fill="none" xmlns="http://www.w3.org/2000/svg">
<path d="M0 10C0 4.47715 4.47715 0 10 0H60V50C60 55.5228 55.5228 60 50 60H0V10Z" fill="#F2913D"/>
<path d="M20.728 24.2V18.008H32.296V53H25.384V24.2H20.728ZM42.6786 53.336C41.4626 53.336 40.4546 52.968 39.6546 52.232C38.8866 51.464 38.5026 50.52 38.5026 49.4C38.5026 48.28 38.8866 47.352 39.6546 46.616C40.4546 45.848 41.4626 45.464 42.6786 45.464C43.8626 45.464 44.8386 45.848 45.6066 46.616C46.3746 47.352 46.7586 48.28 46.7586 49.4C46.7586 50.52 46.3746 51.464 45.6066 52.232C44.8386 52.968 43.8626 53.336 42.6786 53.336Z" fill="white"/>
</svg>
