<svg width="60" height="60" viewBox="0 0 60 60" fill="none" xmlns="http://www.w3.org/2000/svg">
<path d="M0 10C0 4.47715 4.47715 0 10 0H60V50C60 55.5228 55.5228 60 50 60H0V10Z" fill="#F2913D"/>
<path d="M14.64 27.224C14.8 24.024 15.92 21.56 18 19.832C20.112 18.072 22.88 17.192 26.304 17.192C28.64 17.192 30.64 17.608 32.304 18.44C33.968 19.24 35.216 20.344 36.048 21.752C36.912 23.128 37.344 24.696 37.344 26.456C37.344 28.472 36.816 30.184 35.76 31.592C34.736 32.968 33.504 33.896 32.064 34.376V34.568C33.92 35.144 35.36 36.168 36.384 37.64C37.44 39.112 37.968 41 37.968 43.304C37.968 45.224 37.52 46.936 36.624 48.44C35.76 49.944 34.464 51.128 32.736 51.992C31.04 52.824 28.992 53.24 26.592 53.24C22.976 53.24 20.032 52.328 17.76 50.504C15.488 48.68 14.288 45.992 14.16 42.44H20.688C20.752 44.008 21.28 45.272 22.272 46.232C23.296 47.16 24.688 47.624 26.448 47.624C28.08 47.624 29.328 47.176 30.192 46.28C31.088 45.352 31.536 44.168 31.536 42.728C31.536 40.808 30.928 39.432 29.712 38.6C28.496 37.768 26.608 37.352 24.048 37.352H22.656V31.832H24.048C28.592 31.832 30.864 30.312 30.864 27.272C30.864 25.896 30.448 24.824 29.616 24.056C28.816 23.288 27.648 22.904 26.112 22.904C24.608 22.904 23.44 23.32 22.608 24.152C21.808 24.952 21.344 25.976 21.216 27.224H14.64ZM47.0224 53.336C45.8064 53.336 44.7984 52.968 43.9984 52.232C43.2304 51.464 42.8464 50.52 42.8464 49.4C42.8464 48.28 43.2304 47.352 43.9984 46.616C44.7984 45.848 45.8064 45.464 47.0224 45.464C48.2064 45.464 49.1824 45.848 49.9504 46.616C50.7184 47.352 51.1024 48.28 51.1024 49.4C51.1024 50.52 50.7184 51.464 49.9504 52.232C49.1824 52.968 48.2064 53.336 47.0224 53.336Z" fill="white"/>
</svg>
