<svg width="1440" height="603" viewBox="0 0 1440 603" fill="none" xmlns="http://www.w3.org/2000/svg">
<g filter="url(#filter0_i_1172_1153)">
<path fill-rule="evenodd" clip-rule="evenodd" d="M1440.39 562.312L1380.29 562.182C1320.2 562.051 1200.01 561.79 1079.8 568.416C959.587 576.025 839.358 589.538 719.149 596.164C598.94 602.79 478.751 602.529 358.582 595.38C238.413 588.232 118.264 574.196 58.1917 566.194L-1.8829 559.176L-1.14667 304.351L58.9478 304.482C119.042 304.612 239.231 304.874 359.421 305.135C479.61 305.396 599.799 305.658 719.988 305.919C840.177 306.18 960.366 306.442 1080.55 306.703C1200.74 306.964 1320.93 307.226 1381.03 307.356L1441.12 307.487L1440.39 562.312Z" fill="#F4AD58"/>
<path d="M-0.272949 0H1442V307.575H-0.272949V0Z" fill="#F4AD58"/>
</g>
<defs>
<filter id="filter0_i_1172_1153" x="-1.88281" y="0" width="1443.88" height="604.945" filterUnits="userSpaceOnUse" color-interpolation-filters="sRGB">
<feFlood flood-opacity="0" result="BackgroundImageFix"/>
<feBlend mode="normal" in="SourceGraphic" in2="BackgroundImageFix" result="shape"/>
<feColorMatrix in="SourceAlpha" type="matrix" values="0 0 0 0 0 0 0 0 0 0 0 0 0 0 0 0 0 0 127 0" result="hardAlpha"/>
<feOffset dy="4"/>
<feGaussianBlur stdDeviation="2"/>
<feComposite in2="hardAlpha" operator="arithmetic" k2="-1" k3="1"/>
<feColorMatrix type="matrix" values="0 0 0 0 0 0 0 0 0 0 0 0 0 0 0 0 0 0 0.25 0"/>
<feBlend mode="normal" in2="shape" result="effect1_innerShadow_1172_1153"/>
</filter>
</defs>
</svg>
