<svg width="35" height="35" viewBox="0 0 35 35" fill="none" xmlns="http://www.w3.org/2000/svg">
<path fill-rule="evenodd" clip-rule="evenodd" d="M11.6667 24.7917C11.6667 24.4049 11.513 24.034 11.2395 23.7605C10.966 23.487 10.5951 23.3333 10.2083 23.3333H2.91667V2.91667H10.2083C10.5951 2.91667 10.966 2.76302 11.2395 2.48953C11.513 2.21604 11.6667 1.84511 11.6667 1.45833C11.6667 1.07156 11.513 0.700626 11.2395 0.427136C10.966 0.153645 10.5951 0 10.2083 0H2.91667C2.14312 0 1.40125 0.307291 0.854272 0.854272C0.307291 1.40125 0 2.14312 0 2.91667V23.3333C0 24.1069 0.307291 24.8487 0.854272 25.3957C1.40125 25.9427 2.14312 26.25 2.91667 26.25H10.2083C10.5951 26.25 10.966 26.0964 11.2395 25.8229C11.513 25.5494 11.6667 25.1784 11.6667 24.7917Z" fill="white"/>
<path d="M27.2912 14.1458C27.5574 13.8744 27.7071 13.5096 27.7083 13.1294V13.1206C27.7071 12.7354 27.5534 12.3663 27.281 12.094L21.4477 6.26064C21.3131 6.12136 21.1522 6.01026 20.9743 5.93383C20.7964 5.8574 20.605 5.81717 20.4114 5.81548C20.2177 5.8138 20.0257 5.8507 19.8465 5.92403C19.6673 5.99735 19.5044 6.10564 19.3675 6.24257C19.2306 6.37949 19.1223 6.54232 19.049 6.72154C18.9756 6.90077 18.9387 7.0928 18.9404 7.28644C18.9421 7.48007 18.9823 7.67143 19.0588 7.84936C19.1352 8.02728 19.2463 8.1882 19.3856 8.32272L22.7295 11.6667H8.74996C8.36319 11.6667 7.99225 11.8203 7.71876 12.0938C7.44527 12.3673 7.29163 12.7382 7.29163 13.125C7.29163 13.5118 7.44527 13.8827 7.71876 14.1562C7.99225 14.4297 8.36319 14.5834 8.74996 14.5834H22.7295L19.3856 17.9273C19.1199 18.2024 18.9729 18.5707 18.9763 18.9531C18.9796 19.3355 19.133 19.7012 19.4033 19.9716C19.6737 20.242 20.0395 20.3954 20.4219 20.3987C20.8042 20.402 21.1726 20.255 21.4477 19.9894L27.281 14.1561L27.2912 14.1458Z" fill="white"/>
</svg>
