<svg width="137" height="137" viewBox="0 0 137 137" fill="none" xmlns="http://www.w3.org/2000/svg">
<rect width="137" height="137" rx="68.5" fill="#D9CFCF"/>
<path d="M32.8855 75.1383C31.977 75.1383 31.1607 74.9802 30.4365 74.6642C29.7255 74.3351 29.1659 73.8874 28.7578 73.3212C28.3496 72.7419 28.1389 72.077 28.1258 71.3265H30.0415C30.1073 71.9717 30.3707 72.5181 30.8315 72.9657C31.3055 73.4002 31.9902 73.6175 32.8855 73.6175C33.7413 73.6175 34.4128 73.4068 34.9 72.9855C35.4003 72.551 35.6505 71.998 35.6505 71.3265C35.6505 70.7998 35.5057 70.3719 35.216 70.0427C34.9263 69.7136 34.5643 69.4634 34.1298 69.2922C33.6953 69.1211 33.1093 68.9367 32.372 68.7392C31.4635 68.5022 30.7328 68.2652 30.1798 68.0282C29.6399 67.7912 29.1725 67.4226 28.7775 66.9222C28.3957 66.4087 28.2048 65.7241 28.2048 64.8682C28.2048 64.1177 28.3957 63.4528 28.7775 62.8735C29.1593 62.2942 29.6926 61.8465 30.3773 61.5305C31.0751 61.2145 31.8717 61.0565 32.767 61.0565C34.0573 61.0565 35.1107 61.3791 35.927 62.0242C36.7565 62.6694 37.2239 63.5252 37.3293 64.5917H35.3543C35.2884 64.0651 35.0119 63.6042 34.5248 63.2092C34.0376 62.8011 33.3924 62.597 32.5893 62.597C31.8388 62.597 31.2265 62.7945 30.7525 63.1895C30.2785 63.5713 30.0415 64.1112 30.0415 64.809C30.0415 65.3093 30.1798 65.7175 30.4563 66.0335C30.7459 66.3495 31.0948 66.5931 31.503 66.7642C31.9243 66.9222 32.5103 67.1066 33.2608 67.3172C34.1693 67.5674 34.9 67.8176 35.453 68.0677C36.006 68.3047 36.48 68.68 36.875 69.1935C37.27 69.6938 37.4675 70.3785 37.4675 71.2475C37.4675 71.919 37.2898 72.551 36.9343 73.1435C36.5788 73.736 36.0521 74.2166 35.3543 74.5852C34.6564 74.9539 33.8335 75.1383 32.8855 75.1383ZM49.7108 64.177V75H47.9136V73.4002C47.5712 73.9532 47.0906 74.3877 46.4718 74.7037C45.8661 75.0066 45.1946 75.158 44.4573 75.158C43.6146 75.158 42.8576 74.9868 42.1861 74.6445C41.5146 74.289 40.9813 73.7623 40.5863 73.0645C40.2045 72.3667 40.0136 71.5174 40.0136 70.5167V64.177H41.7911V70.2797C41.7911 71.3462 42.061 72.1692 42.6008 72.7485C43.1406 73.3147 43.878 73.5977 44.8128 73.5977C45.774 73.5977 46.5311 73.3015 47.0841 72.709C47.6371 72.1165 47.9136 71.2541 47.9136 70.1217V64.177H49.7108ZM52.0739 69.549C52.0739 68.443 52.2977 67.4752 52.7454 66.6457C53.193 65.8031 53.8053 65.1513 54.5821 64.6905C55.3721 64.2297 56.2477 63.9992 57.2089 63.9992C58.1569 63.9992 58.9798 64.2033 59.6776 64.6115C60.3754 65.0197 60.8955 65.5332 61.2379 66.152V64.177H63.0549V75H61.2379V72.9855C60.8824 73.6175 60.3491 74.1442 59.6381 74.5655C58.9403 74.9737 58.1239 75.1778 57.1891 75.1778C56.2279 75.1778 55.3589 74.9408 54.5821 74.4667C53.8053 73.9927 53.193 73.3278 52.7454 72.472C52.2977 71.6162 52.0739 70.6418 52.0739 69.549ZM61.2379 69.5687C61.2379 68.7524 61.0733 68.0414 60.7441 67.4357C60.4149 66.8301 59.9673 66.3692 59.4011 66.0532C58.8481 65.7241 58.2359 65.5595 57.5644 65.5595C56.8929 65.5595 56.2806 65.7175 55.7276 66.0335C55.1746 66.3495 54.7335 66.8103 54.4044 67.416C54.0752 68.0217 53.9106 68.7327 53.9106 69.549C53.9106 70.3785 54.0752 71.1027 54.4044 71.7215C54.7335 72.3272 55.1746 72.7946 55.7276 73.1237C56.2806 73.4397 56.8929 73.5977 57.5644 73.5977C58.2359 73.5977 58.8481 73.4397 59.4011 73.1237C59.9673 72.7946 60.4149 72.3272 60.7441 71.7215C61.0733 71.1027 61.2379 70.3851 61.2379 69.5687ZM75.7617 65.6582H73.4904V75H71.6932V65.6582H70.2909V64.177H71.6932V63.4067C71.6932 62.1954 72.0026 61.3132 72.6214 60.7602C73.2534 60.1941 74.2607 59.911 75.6432 59.911V61.412C74.8532 61.412 74.2936 61.57 73.9644 61.886C73.6484 62.1888 73.4904 62.6957 73.4904 63.4067V64.177H75.7617V65.6582ZM82.5774 75.1778C81.5636 75.1778 80.6419 74.9473 79.8124 74.4865C78.9961 74.0257 78.3509 73.3739 77.8769 72.5312C77.4161 71.6754 77.1857 70.6879 77.1857 69.5687C77.1857 68.4627 77.4227 67.4884 77.8967 66.6457C78.3838 65.7899 79.0422 65.1382 79.8717 64.6905C80.7012 64.2297 81.6294 63.9992 82.6564 63.9992C83.6834 63.9992 84.6117 64.2297 85.4412 64.6905C86.2707 65.1382 86.9224 65.7833 87.3964 66.626C87.8836 67.4687 88.1272 68.4496 88.1272 69.5687C88.1272 70.6879 87.877 71.6754 87.3767 72.5312C86.8895 73.3739 86.2246 74.0257 85.3819 74.4865C84.5393 74.9473 83.6044 75.1778 82.5774 75.1778ZM82.5774 73.5977C83.2226 73.5977 83.8283 73.4463 84.3944 73.1435C84.9606 72.8407 85.4148 72.3864 85.7572 71.7807C86.1127 71.1751 86.2904 70.4377 86.2904 69.5687C86.2904 68.6997 86.1193 67.9624 85.7769 67.3567C85.4346 66.7511 84.9869 66.3034 84.4339 66.0137C83.8809 65.7109 83.2818 65.5595 82.6367 65.5595C81.9783 65.5595 81.3727 65.7109 80.8197 66.0137C80.2798 66.3034 79.8453 66.7511 79.5162 67.3567C79.187 67.9624 79.0224 68.6997 79.0224 69.5687C79.0224 70.4509 79.1804 71.1948 79.4964 71.8005C79.8256 72.4062 80.2601 72.8604 80.7999 73.1632C81.3398 73.4529 81.9323 73.5977 82.5774 73.5977ZM92.6825 65.6582V72.0375C92.6825 72.5642 92.7944 72.9394 93.0182 73.1632C93.2421 73.3739 93.6305 73.4792 94.1835 73.4792H95.5067V75H93.8872C92.8866 75 92.1361 74.7696 91.6357 74.3087C91.1354 73.8479 90.8852 73.0908 90.8852 72.0375V65.6582H89.483V64.177H90.8852V61.4515H92.6825V64.177H95.5067V65.6582H92.6825ZM102.405 75.1778C101.391 75.1778 100.469 74.9473 99.6396 74.4865C98.8232 74.0257 98.1781 73.3739 97.7041 72.5312C97.2432 71.6754 97.0128 70.6879 97.0128 69.5687C97.0128 68.4627 97.2498 67.4884 97.7238 66.6457C98.211 65.7899 98.8693 65.1382 99.6988 64.6905C100.528 64.2297 101.457 63.9992 102.484 63.9992C103.511 63.9992 104.439 64.2297 105.268 64.6905C106.098 65.1382 106.75 65.7833 107.224 66.626C107.711 67.4687 107.954 68.4496 107.954 69.5687C107.954 70.6879 107.704 71.6754 107.204 72.5312C106.717 73.3739 106.052 74.0257 105.209 74.4865C104.366 74.9473 103.432 75.1778 102.405 75.1778ZM102.405 73.5977C103.05 73.5977 103.655 73.4463 104.222 73.1435C104.788 72.8407 105.242 72.3864 105.584 71.7807C105.94 71.1751 106.118 70.4377 106.118 69.5687C106.118 68.6997 105.946 67.9624 105.604 67.3567C105.262 66.7511 104.814 66.3034 104.261 66.0137C103.708 65.7109 103.109 65.5595 102.464 65.5595C101.805 65.5595 101.2 65.7109 100.647 66.0137C100.107 66.3034 99.6725 66.7511 99.3433 67.3567C99.0142 67.9624 98.8496 68.6997 98.8496 69.5687C98.8496 70.4509 99.0076 71.1948 99.3236 71.8005C99.6527 72.4062 100.087 72.8604 100.627 73.1632C101.167 73.4529 101.759 73.5977 102.405 73.5977Z" fill="#544E48"/>
</svg>
