<svg width="16" height="16" viewBox="0 0 16 16" fill="none" xmlns="http://www.w3.org/2000/svg">
<path d="M14.2188 12.6899C14.1351 13.0652 13.9275 13.4015 13.6295 13.6445C13.3039 13.9748 12.9159 14.237 12.4881 14.416C12.0603 14.595 11.6012 14.6872 11.1375 14.6872H10.9208C9.94748 14.6344 8.99446 14.388 8.11747 13.9625H8.1108C7.90747 13.8679 7.69747 13.7732 7.49413 13.6579C6.47041 13.0839 5.53143 12.3704 4.70413 11.5379C3.63051 10.5294 2.74947 9.33395 2.10413 8.00988C1.76117 7.28424 1.53225 6.51002 1.42547 5.71455C1.26844 4.88188 1.3629 4.02132 1.6968 3.24255C1.9076 2.8912 2.16505 2.57005 2.46213 2.28788C2.59581 2.13671 2.75924 2.01476 2.94221 1.92964C3.12517 1.84452 3.32373 1.79808 3.52547 1.79321C3.74487 1.81746 3.95727 1.88505 4.15033 1.99205C4.3434 2.09906 4.51329 2.24335 4.65013 2.41655C4.9548 2.74788 5.3268 3.09321 5.63213 3.41188L6.05213 3.82521C6.2988 4.04388 6.45147 4.34921 6.4788 4.67855C6.4788 4.98055 6.36747 5.27188 6.1668 5.49788C6.03684 5.65594 5.89889 5.80725 5.75347 5.95121L5.61813 6.09321C5.53947 6.16655 5.47947 6.25721 5.44213 6.35788C5.4088 6.45699 5.39547 6.55855 5.40213 6.66255C5.50947 6.94988 5.67813 7.21121 5.89547 7.42788C6.2348 7.88788 6.57347 8.28788 6.9188 8.72121C7.54343 9.44636 8.28473 10.0622 9.11213 10.5432C9.1968 10.6052 9.29413 10.6465 9.39747 10.6645C9.4868 10.6712 9.57747 10.6579 9.66147 10.6245C9.89813 10.4852 10.1081 10.3065 10.2841 10.0959C10.5208 9.80603 10.8606 9.61918 11.2321 9.57455C11.5897 9.57946 11.9307 9.72566 12.1808 9.98121C12.3161 10.0959 12.4648 10.2519 12.6075 10.4012L12.8101 10.6105L13.0201 10.8139L13.3795 11.1792C13.5937 11.3694 13.7946 11.5728 13.9821 11.7892C14.1701 12.0492 14.2548 12.3712 14.2188 12.6899ZM11.7881 8.05055C11.6538 8.04916 11.5254 7.99519 11.4305 7.90022C11.3355 7.80525 11.2815 7.67685 11.2801 7.54255C11.2808 7.15906 11.2058 6.77922 11.0594 6.42479C10.913 6.07036 10.698 5.74833 10.4268 5.47717C10.1557 5.20601 9.83365 4.99105 9.47922 4.84462C9.1248 4.69819 8.74495 4.62318 8.36147 4.62388C8.22674 4.62388 8.09753 4.57036 8.00226 4.47509C7.90699 4.37982 7.85347 4.25061 7.85347 4.11588C7.85347 3.98115 7.90699 3.85194 8.00226 3.75667C8.09753 3.6614 8.22674 3.60788 8.36147 3.60788C8.8784 3.60709 9.3904 3.70832 9.86813 3.90578C10.3459 4.10323 10.7799 4.39303 11.1455 4.75855C11.511 5.12408 11.8008 5.55815 11.9982 6.03588C12.1957 6.51361 12.2969 7.02562 12.2961 7.54255C12.2963 7.60931 12.2833 7.67544 12.2578 7.73716C12.2324 7.79887 12.1949 7.85494 12.1477 7.90215C12.1005 7.94936 12.0445 7.98677 11.9827 8.01224C11.921 8.0377 11.8549 8.05072 11.7881 8.05055Z" fill="#F2913D"/>
<path d="M14.1379 7.81326C14.0037 7.81187 13.8754 7.758 13.7804 7.66317C13.6855 7.56834 13.6314 7.44011 13.6299 7.30592C13.6309 6.65252 13.5031 6.00533 13.2538 5.40137C13.0045 4.79742 12.6385 4.24856 12.1768 3.78619C11.7151 3.32383 11.1668 2.95704 10.5632 2.70681C9.95962 2.45659 9.31261 2.32783 8.65921 2.32792C8.591 2.3304 8.52298 2.31909 8.45923 2.2947C8.39548 2.2703 8.3373 2.2333 8.28817 2.18591C8.23903 2.13853 8.19995 2.08173 8.17326 2.0189C8.14657 1.95608 8.13281 1.88852 8.13281 1.82026C8.13281 1.752 8.14657 1.68444 8.17326 1.62161C8.19995 1.55878 8.23903 1.50198 8.28817 1.4546C8.3373 1.40721 8.39548 1.37022 8.45923 1.34582C8.52298 1.32142 8.591 1.31012 8.65921 1.31259C9.44595 1.31259 10.225 1.46766 10.9518 1.76893C11.6785 2.07021 12.3388 2.51178 12.8948 3.0684C13.4508 3.62502 13.8916 4.28577 14.1921 5.01288C14.4926 5.73998 14.6468 6.51918 14.6459 7.30592C14.6461 7.37268 14.633 7.43882 14.6076 7.50053C14.5821 7.56225 14.5447 7.61832 14.4975 7.66552C14.4503 7.71273 14.3942 7.75014 14.3325 7.77561C14.2708 7.80108 14.2046 7.81343 14.1379 7.81326Z" fill="#F2913D"/>
</svg>
