<svg width="1441" height="372" viewBox="0 0 1441 372" fill="none" xmlns="http://www.w3.org/2000/svg">
<path fill-rule="evenodd" clip-rule="evenodd" d="M1440.73 319.166L1380.73 319.262C1320.73 319.357 1200.73 319.548 1080.75 328.365C960.775 338.414 840.812 355.858 720.831 364.675C600.849 373.492 480.85 373.683 360.831 365.247C240.813 356.812 120.776 339.751 60.7545 329.988L0.735955 321.457L0.0478179 2.29074L60.0477 2.19527C120.048 2.09981 240.048 1.90887 360.047 1.71794C480.047 1.527 600.047 1.33607 720.047 1.14513C840.047 0.954199 960.047 0.763264 1080.05 0.572329C1200.05 0.381395 1320.05 0.19046 1380.05 0.0949931L1440.05 -0.000474215L1440.73 319.166Z" fill="#F4AD58"/>
</svg>
